<svg width="21" height="24" viewBox="0 0 21 24" fill="none" xmlns="http://www.w3.org/2000/svg">
<path d="M9.6 1.83019e-09H0.48C0.352696 1.83019e-09 0.230606 0.0505713 0.140589 0.140589C0.0505713 0.230606 0 0.352696 0 0.48V1.44C0 1.5673 0.0505713 1.68939 0.140589 1.77941C0.230606 1.86943 0.352696 1.92 0.48 1.92H1.92C2.30191 1.92 2.66818 2.07171 2.93823 2.34177C3.20829 2.61182 3.36 2.97809 3.36 3.36V19.68C3.36 20.0619 3.20829 20.4282 2.93823 20.6982C2.66818 20.9683 2.30191 21.12 1.92 21.12H0.48C0.352696 21.12 0.230606 21.1706 0.140589 21.2606C0.0505713 21.3506 0 21.4727 0 21.6V22.56C0 22.6873 0.0505713 22.8094 0.140589 22.8994C0.230606 22.9894 0.352696 23.04 0.48 23.04H17.9702C18.1844 23.0401 18.3924 22.9685 18.5613 22.8368C18.7301 22.705 18.85 22.5206 18.9019 22.3128L20.0107 16.9166C20.0285 16.8459 20.0298 16.772 20.0147 16.7006C19.9996 16.6292 19.9684 16.5622 19.9235 16.5047C19.8786 16.4472 19.8212 16.4006 19.7557 16.3686C19.6901 16.3366 19.6181 16.32 19.5451 16.32H18.5851C18.4843 16.32 18.3861 16.3517 18.3043 16.4106C18.2226 16.4695 18.1614 16.5527 18.1296 16.6483L16.8293 19.4045C16.6819 19.8999 16.3785 20.3345 15.9642 20.6436C15.5499 20.9527 15.047 21.1198 14.5301 21.12H8.64C8.25809 21.12 7.89182 20.9683 7.62177 20.6982C7.35171 20.4282 7.2 20.0619 7.2 19.68V12.48H11.04C11.6765 12.48 12.287 12.7329 12.7371 13.1829C13.1871 13.633 13.44 14.2435 13.44 14.88V15.36H14.88V7.2H13.44V8.16C13.44 8.47517 13.3779 8.78726 13.2573 9.07844C13.1367 9.36962 12.9599 9.6342 12.7371 9.85706C12.5142 10.0799 12.2496 10.2567 11.9584 10.3773C11.6673 10.4979 11.3552 10.56 11.04 10.56H7.2V3.36C7.2 2.97809 7.35171 2.61182 7.62177 2.34177C7.89182 2.07171 8.25809 1.92 8.64 1.92H14.4C15.0365 1.92 15.647 2.17286 16.0971 2.62294C16.5471 3.07303 16.8 3.68348 16.8 4.32V6.24C16.8 6.3673 16.8506 6.48939 16.9406 6.57941C17.0306 6.66943 17.1527 6.72 17.28 6.72H17.8238C17.9394 6.72 18.0511 6.6783 18.1384 6.60255C18.2257 6.5268 18.2827 6.4221 18.299 6.30768L19.0435 1.09584C19.063 0.959671 19.053 0.82091 19.0141 0.688954C18.9753 0.556998 18.9085 0.434928 18.8184 0.331013C18.7283 0.227097 18.6169 0.143763 18.4918 0.0866528C18.3666 0.0295429 18.2307 -8.4913e-06 18.0931 1.83019e-09H9.6Z" fill="white"/>
</svg>
