<svg width="48" height="48" viewBox="0 0 48 48" fill="none" xmlns="http://www.w3.org/2000/svg">
<circle cx="24" cy="24" r="22.5" stroke="#253165" stroke-width="3"/>
<g clip-path="url(#clip0_194:18)">
<path d="M29.0194 25.3507L26.292 28.0781L34.0014 35.7875L36.7288 33.0602L29.0194 25.3507Z" fill="#253165"/>
<path d="M31.0715 21.4286C33.5529 21.4286 35.5715 19.41 35.5715 16.9286C35.5715 16.1829 35.3658 15.4886 35.0443 14.8714L31.5729 18.3429L29.6572 16.4271L33.1286 12.9557C32.5115 12.6343 31.8172 12.4286 31.0715 12.4286C28.5901 12.4286 26.5715 14.4471 26.5715 16.9286C26.5715 17.4557 26.6743 17.9571 26.8415 18.42L24.4629 20.7986L22.1743 18.51L23.0872 17.5971L21.2743 15.7843L24.0001 13.0586C22.4958 11.5543 20.0529 11.5543 18.5486 13.0586L13.9972 17.61L15.8101 19.4229H12.1843L11.2715 20.3357L15.8229 24.8871L16.7358 23.9743V20.3357L18.5486 22.1486L19.4615 21.2357L21.7501 23.5243L12.2229 33.0514L14.9486 35.7771L29.5801 21.1586C30.0429 21.3257 30.5443 21.4286 31.0715 21.4286Z" fill="#253165"/>
</g>
<defs>
<clipPath id="clip0_194:18">
<rect width="30.8571" height="30.8571" fill="white" transform="translate(8.57129 8.57141)"/>
</clipPath>
</defs>
</svg>
