<svg width="48" height="48" viewBox="0 0 48 48" fill="none" xmlns="http://www.w3.org/2000/svg">
<circle cx="24" cy="24" r="22.5" stroke="#253165" stroke-width="3"/>
<path d="M21.3333 24C24.2789 24 26.6667 21.6122 26.6667 18.6666C26.6667 15.7211 24.2789 13.3333 21.3333 13.3333C18.3878 13.3333 16 15.7211 16 18.6666C16 21.6122 18.3878 24 21.3333 24Z" fill="#253165"/>
<path d="M21.7998 26.6799C18.1598 26.5466 10.6665 28.3599 10.6665 31.9999V34.6666H23.3865C20.0932 30.9866 21.7465 26.8133 21.7998 26.6799Z" fill="#253165"/>
<path d="M33.9067 32.0267C34.3867 31.24 34.6667 30.32 34.6667 29.3333C34.6667 26.3867 32.28 24 29.3333 24C26.3867 24 24 26.3867 24 29.3333C24 32.28 26.3867 34.6667 29.3333 34.6667C30.32 34.6667 31.24 34.3733 32.0267 33.9067L35.4533 37.3333L37.3333 35.4533L33.9067 32.0267ZM29.3333 32C27.8667 32 26.6667 30.8 26.6667 29.3333C26.6667 27.8667 27.8667 26.6667 29.3333 26.6667C30.8 26.6667 32 27.8667 32 29.3333C32 30.8 30.8 32 29.3333 32Z" fill="#253165"/>
</svg>
